<?xml version="1.0" encoding="iso-8859-1"?>
<!-- Generator: Adobe Illustrator 16.0.0, SVG Export Plug-In . SVG Version: 6.00 Build 0)  -->
<!DOCTYPE svg PUBLIC "-//W3C//DTD SVG 1.1//EN" "http://www.w3.org/Graphics/SVG/1.1/DTD/svg11.dtd">
<svg version="1.1" id="Capa_1" xmlns="http://www.w3.org/2000/svg" xmlns:xlink="http://www.w3.org/1999/xlink" x="0px" y="0px"
	 width="31.999px" height="32px" viewBox="0 0 31.999 32" style="enable-background:new 0 0 31.999 32;" xml:space="preserve">
<g>
	<path d="M31.987,25.351c-0.122-1.195-2.639-3.557-2.639-3.557s2.654-1.571,2.619-2.812c-0.934-5.34-8.483-2.559-8.483-2.559
		s0.649-0.55,2.887-2.445c3.241-3.031-1.368-4.891-1.765-5.422c-0.395-0.531-0.702-4.118-3.087-3.433
		c-1.415,0.408-0.391-6.256-3.017-4.169c-1.204,1.133-6.655,7.536-0.879,15.994c-0.694-0.396-0.956,0.489-1.171,0.38
		c-0.231-0.118-0.385-0.7-0.386-0.705c-0.063-0.254-0.229-0.504-0.479-0.689c-0.332-0.249-0.729-0.315-1.045-0.216
		c-0.377-1.263-0.704-3.458-0.73-5.345c-0.009-0.674-0.334-1.154-0.914-1.35c-0.751-0.254-1.764,0.052-2.257,0.68
		c-0.385,0.497-0.401,1.104-0.033,1.705c0.03,0.068,0.072,0.135,0.138,0.183c0.201,0.151,0.487,0.11,0.638-0.093
		c0.15-0.201,0.109-0.486-0.092-0.638c-0.169-0.126-0.392-0.109-0.55,0.015c-0.134-0.421-0.005-0.743,0.174-0.956
		c0.402-0.514,1.259-0.771,1.87-0.565c0.305,0.104,0.669,0.364,0.679,1.025c0.014,1.022,0.233,3.881,0.764,5.524
		c-0.022,0.023-0.047,0.044-0.067,0.069c-1.727-0.039-4.519,0.558-5.501,0.833c-0.636,0.177-0.989-0.099-1.174-0.361
		c-0.371-0.527-0.366-1.422,0.013-1.953c0.153-0.231,0.426-0.447,0.866-0.438c-0.073,0.187-0.025,0.405,0.143,0.531
		c0.202,0.149,0.487,0.108,0.639-0.093c0.15-0.201,0.109-0.486-0.093-0.638c-0.064-0.049-0.14-0.07-0.215-0.08
		c-0.68-0.183-1.258,0.006-1.624,0.515c-0.464,0.65-0.47,1.708-0.015,2.356c0.354,0.502,0.904,0.677,1.555,0.495
		c1.782-0.5,3.931-0.805,5.256-0.813c-0.053,0.358,0.13,0.773,0.498,1.049c0.249,0.187,0.535,0.272,0.796,0.264
		c0.003,0,0.625,0.048,0.792,0.268c0.088,0.114-0.034,0.306-0.03,0.566C5.818,14.624,0.95,21.964,0.176,23.474
		c-1.279,3.101,4.841,0.271,4.841,1.744c0,2.479,3.533,1.783,4.152,2.016c0.621,0.232,3.684,4.148,5.699,0.194
		c1.201-2.675,1.551-3.45,1.551-3.45s-0.582,8.024,4.807,7.442c1.201-0.311,1.979-3.295,1.979-3.295s2.965,1.765,4.146,1.551
		c1.183-0.214,1.008-1.048,0.077-1.318c-0.93-0.271-4.283-0.368-4.264-0.97c0.539-1.011-0.084-3.22-0.515-4.473
		c1.178,0.626,2.31,1.236,2.961,1.647c-0.417-0.312-1.19-1.047-2.057-1.902c1.02,0.084,4.095,0.25,5.077-0.702
		c0.571-0.186,1.593,3.011,2.111,3.828C31.262,26.61,32.109,26.546,31.987,25.351z"/>
</g>
<g>
</g>
<g>
</g>
<g>
</g>
<g>
</g>
<g>
</g>
<g>
</g>
<g>
</g>
<g>
</g>
<g>
</g>
<g>
</g>
<g>
</g>
<g>
</g>
<g>
</g>
<g>
</g>
<g>
</g>
</svg>
